control3min_grf.mot
version=1
nRows=25
nColumns 19
inDegrees=yes
endheader
time	1_ground_force_vx	1_ground_force_vy	1_ground_force_vz	1_ground_force_px	1_ground_force_py	1_ground_force_pz	1_ground_torque_x	1_ground_torque_y	1_ground_torque_z	2_ground_force_vx	2_ground_force_vy	2_ground_force_vz	2_ground_force_px	2_ground_force_py	2_ground_force_pz	2_ground_torque_x	2_ground_torque_y	2_ground_torque_z
            3.751500	          -16.699540	         1003.593540	          -93.193603	           -0.218614	            0.006388	           -0.443211	           -0.112874	            6.783424	           -0.629908	           -4.039600	         1042.227929	          121.087601	           -0.228119	            0.005964	           -0.782967	            0.023126	           -5.966668	           -0.693216
            3.752000	          -17.616837	         1002.873284	          -93.423695	           -0.218395	            0.006388	           -0.443195	           -0.119434	            6.799014	           -0.633369	           -4.506085	         1041.673831	          121.132750	           -0.227936	            0.005965	           -0.783028	            0.025778	           -5.959097	           -0.692963
            3.752500	          -18.534982	         1003.055565	          -93.925065	           -0.218290	            0.006388	           -0.443150	           -0.124353	            6.729586	           -0.630151	           -5.298504	         1040.565654	          121.223002	           -0.227888	            0.005965	           -0.782916	            0.030635	           -6.016441	           -0.700899
            3.753000	          -19.406758	         1001.615041	          -94.341787	           -0.218154	            0.006389	           -0.443407	           -0.129962	            6.707538	           -0.631781	           -5.671289	         1040.011650	          121.268126	           -0.227865	            0.005965	           -0.783031	            0.032896	           -6.032552	           -0.703412
            3.753500	          -20.415091	         1001.073761	          -94.295751	           -0.218022	            0.006389	           -0.443285	           -0.132335	            6.489198	           -0.611247	           -6.325193	         1039.456799	          121.266434	           -0.227580	            0.005966	           -0.783019	            0.036245	           -5.956432	           -0.694897
            3.754000	          -21.242299	         1001.617832	          -95.070930	           -0.217827	            0.006387	           -0.442957	           -0.135375	            6.383212	           -0.605878	           -6.699328	         1039.271366	          121.265937	           -0.227519	            0.005967	           -0.783116	            0.038777	           -6.015520	           -0.701913
            3.754500	          -21.976776	         1000.177728	          -95.579712	           -0.217658	            0.006388	           -0.443177	           -0.136987	            6.234371	           -0.595774	           -7.772161	         1037.977928	          121.402572	           -0.227386	            0.005967	           -0.782993	            0.044934	           -6.000915	           -0.701871
            3.755000	          -22.711367	          998.737820	          -96.134347	           -0.217572	            0.006388	           -0.443119	           -0.140998	            6.200442	           -0.596829	           -8.187061	         1036.134039	          121.630829	           -0.227323	            0.005967	           -0.782974	            0.047180	           -5.970938	           -0.700923
            3.755500	          -23.261857	          998.918478	          -96.269780	           -0.217362	            0.006388	           -0.443021	           -0.146444	            6.288639	           -0.606061	           -8.795945	         1036.130501	          122.006513	           -0.227087	            0.005968	           -0.783025	            0.050497	           -5.948338	           -0.700429
            3.756000	          -23.950654	          997.118305	          -96.871926	           -0.217310	            0.006388	           -0.443201	           -0.149041	            6.204904	           -0.602818	           -9.399116	         1034.471934	          121.766210	           -0.226978	            0.005969	           -0.783013	            0.053401	           -5.877375	           -0.691817
            3.756500	          -25.005982	          996.038412	          -97.332499	           -0.217156	            0.006388	           -0.443147	           -0.153036	            6.095749	           -0.595674	          -10.196105	         1034.652133	          122.048775	           -0.226763	            0.005970	           -0.783127	            0.057543	           -5.839207	           -0.688800
            3.757000	          -25.739890	          994.597325	          -97.612005	           -0.216994	            0.006388	           -0.443205	           -0.152405	            5.888984	           -0.577958	          -10.847413	         1033.361221	          121.903677	           -0.226732	            0.005970	           -0.783115	            0.061809	           -5.888170	           -0.694616
            3.757500	          -26.336222	          993.516660	          -97.844439	           -0.216859	            0.006388	           -0.443213	           -0.153153	            5.777613	           -0.568996	          -11.354018	         1030.964512	          122.129987	           -0.226574	            0.005970	           -0.783031	            0.064436	           -5.850930	           -0.693112
            3.758000	          -26.979633	          992.978718	          -98.533008	           -0.216698	            0.006388	           -0.443118	           -0.153257	            5.640583	           -0.559713	          -12.009273	         1030.778231	          122.082689	           -0.226433	            0.005970	           -0.782982	            0.067584	           -5.800831	           -0.687035
            3.758500	          -27.530495	          992.078826	          -98.902355	           -0.216666	            0.006387	           -0.442892	           -0.156388	            5.635538	           -0.561818	          -12.755508	         1029.854547	          122.173579	           -0.226271	            0.005972	           -0.783116	            0.070797	           -5.716023	           -0.678103
            3.759000	          -27.576267	          990.456789	          -99.000902	           -0.216403	            0.006387	           -0.442941	           -0.159173	            5.717030	           -0.571445	          -13.122893	         1027.826749	          122.401144	           -0.226182	            0.005972	           -0.783124	            0.073188	           -5.732345	           -0.682650
            3.759500	          -28.310532	          988.475721	          -99.466151	           -0.216242	            0.006388	           -0.443073	           -0.159248	            5.560219	           -0.559501	          -14.106096	         1027.639040	          122.353984	           -0.226127	            0.005972	           -0.783219	            0.078580	           -5.724608	           -0.681590
            3.760000	          -28.448809	          987.575909	          -99.836521	           -0.216059	            0.006387	           -0.442862	           -0.159668	            5.542732	           -0.560329	          -14.566579	         1025.427325	          122.440155	           -0.225978	            0.005972	           -0.783054	            0.079626	           -5.605346	           -0.669301
            3.760500	          -29.320162	          986.314894	         -100.069046	           -0.215980	            0.006387	           -0.442787	           -0.158507	            5.332079	           -0.540979	          -15.123379	         1023.951500	          122.622851	           -0.225819	            0.005973	           -0.783125	            0.082921	           -5.614271	           -0.672335
            3.761000	          -29.641272	          984.332923	         -100.306028	           -0.215888	            0.006387	           -0.442884	           -0.153239	            5.088785	           -0.518560	          -15.677602	         1021.739538	          122.615204	           -0.225698	            0.005974	           -0.783087	            0.085481	           -5.570992	           -0.668554
            3.761500	          -30.146191	          982.892273	         -100.677807	           -0.215771	            0.006388	           -0.443025	           -0.154739	            5.045136	           -0.516774	          -16.091234	         1019.527992	          122.701356	           -0.225664	            0.005974	           -0.783104	            0.087819	           -5.564119	           -0.669648
            3.762000	          -30.192279	          982.351966	         -100.817584	           -0.215464	            0.006387	           -0.442756	           -0.157957	            5.139370	           -0.527447	          -16.231640	         1019.526313	          123.029904	           -0.225336	            0.005975	           -0.783233	            0.087690	           -5.507872	           -0.664655
            3.762500	          -30.651174	          979.289222	         -101.242286	           -0.215431	            0.006388	           -0.443094	           -0.158949	            5.078323	           -0.525015	          -16.785925	         1017.314975	          122.881482	           -0.225320	            0.005976	           -0.783286	            0.090878	           -5.507671	           -0.665272
            3.763000	          -30.972510	          978.569080	         -101.473872	           -0.215207	            0.006387	           -0.442897	           -0.158427	            5.005453	           -0.519046	          -17.387560	         1015.286330	          123.109146	           -0.225240	            0.005976	           -0.783332	            0.092807	           -5.419125	           -0.657099
            3.763500	          -31.201284	          976.766121	         -101.435166	           -0.215122	            0.006387	           -0.442778	           -0.155124	            4.856205	           -0.504307	          -18.083703	         1013.442599	          123.009018	           -0.225157	            0.005976	           -0.783237	            0.095879	           -5.373200	           -0.652185
